<svg width="90" height="91" viewBox="0 0 90 91" fill="none" xmlns="http://www.w3.org/2000/svg">
<path fill-rule="evenodd" clip-rule="evenodd" d="M46.26 5.35687C47.7603 5.36881 49.2138 5.88024 50.391 6.81037L81.2745 31.1779C82.4546 32.1077 83.2908 33.4047 83.6505 34.8634L84.5055 38.3419C84.752 39.3405 84.7671 40.3822 84.5495 41.3875C84.3319 42.3928 83.8874 43.3351 83.25 44.1424L72.045 58.3444C71.408 59.1506 70.5952 59.8008 69.6688 60.2453C68.7423 60.6898 67.7266 60.917 66.699 60.9094L63.1125 60.8869C61.6128 60.8762 60.1593 60.3664 58.9815 59.4379L28.0935 35.0704C26.9134 34.1405 26.0773 32.8436 25.7175 31.3849L24.8625 27.9064C24.6167 26.9084 24.6021 25.8676 24.8197 24.8631C25.0372 23.8586 25.4813 22.9171 26.118 22.1104L37.3275 7.89937C37.9641 7.09228 38.7767 6.44126 39.7032 5.99595C40.6297 5.55065 41.6456 5.32283 42.6735 5.32987L46.26 5.35687ZM47.6055 10.3429C47.2133 10.0323 46.7288 9.86128 46.2285 9.85687L42.642 9.83437C42.2995 9.83184 41.9609 9.90755 41.6521 10.0557C41.3433 10.2039 41.0724 10.4206 40.86 10.6894L29.655 24.8959C29.4423 25.1651 29.2941 25.4795 29.2215 25.8149C29.149 26.1502 29.1541 26.4978 29.2365 26.8309L30.0915 30.3094C30.2115 30.7956 30.4902 31.2279 30.8835 31.5379L61.767 55.9099C62.1598 56.2188 62.6443 56.3882 63.144 56.3914L66.7305 56.4184C67.073 56.4209 67.4116 56.3452 67.7204 56.197C68.0293 56.0489 68.3002 55.8321 68.5125 55.5634L79.722 41.3524C79.9347 41.0831 80.083 40.7688 80.1555 40.4334C80.2281 40.098 80.2229 39.7505 80.1405 39.4174L79.2855 35.9389C79.1656 35.4526 78.8869 35.0203 78.4935 34.7104L47.6055 10.3429ZM39.9825 44.4889L16.308 74.4994C15.9383 74.9673 15.7695 75.5629 15.8387 76.1552C15.9079 76.7476 16.2094 77.2882 16.677 77.6584L20.2095 80.4484C20.4416 80.6319 20.7077 80.7678 20.9924 80.8484C21.2771 80.9289 21.5749 80.9525 21.8688 80.9178C22.1626 80.8831 22.4467 80.7908 22.7048 80.6462C22.963 80.5015 23.19 80.3074 23.373 80.0749L47.0475 50.0689L50.58 52.8589L26.9055 82.8649C26.3563 83.5608 25.6754 84.1417 24.9016 84.5744C24.1278 85.0071 23.2764 85.2832 22.3959 85.3868C21.5155 85.4905 20.6232 85.4197 19.7701 85.1784C18.917 84.9372 18.1198 84.5302 17.424 83.9809L13.8915 81.1909C12.4874 80.0817 11.5811 78.4605 11.3718 76.6834C11.1625 74.9063 11.6674 73.1188 12.7755 71.7139L36.45 41.7034L39.9825 44.4889Z" fill="white"/>
<path fill-rule="evenodd" clip-rule="evenodd" d="M60.192 18.8794L64.377 13.5784C64.7472 13.1108 65.2878 12.8092 65.8802 12.74C66.4725 12.6709 67.0681 12.8397 67.5361 13.2094L71.0686 15.9994C71.5355 16.3688 71.837 16.9082 71.907 17.4994C71.977 18.0907 71.8098 18.6856 71.4421 19.1539L67.257 24.4549L70.7941 27.2449L74.9745 21.9439C75.5237 21.2478 75.9303 20.4503 76.1712 19.5971C76.4121 18.7438 76.4825 17.8515 76.3784 16.971C76.2744 16.0905 75.9979 15.2392 75.5647 14.4656C75.1316 13.692 74.5503 13.0113 73.8541 12.4624L70.3215 9.67236C68.916 8.56476 67.1282 8.0606 65.3511 8.27071C63.574 8.48083 61.953 9.38802 60.8445 10.7929L56.6595 16.0894L60.192 18.8794Z" fill="white"/>
</svg>
